# xmcd
#
# Track frame offsets: 
#        150
#        18718
#        28487
#        50746
#        67278
#        80013
#        102576
#        118828
#        136228
#        151669
#        167727
#        186019
#        199197
#        221309
#        243934
#        259969
#        275959
#        285611
#        302737
#
# Disc length: 4309 seconds
#
# Revision: 0
# Processed by: cddbd v1.4PL0 Copyright (c) Steve Scherf et al.
# Submitted via: ExactAudioCopy v0.90b4
#
DISCID=2b10d313
DTITLE=Ella Fitzgerald  - Gold - Disc 1
DYEAR=1900
DGENRE=
TTITLE0=Let's Fall In Love
TTITLE1=Ev'rtime We Say Goodbye
TTITLE2=Summertime
TTITLE3=A Fine Romance
TTITLE4=The Very Thought Of You
TTITLE5=Mack The Knife
TTITLE6=Let's Do It (Let's Fall in Lov
TTITLE7=Cheek To Cheek
TTITLE8=The Lady Is A Tramp
TTITLE9=Get Happy
TTITLE10=I Get A Kick Out Of You
TTITLE11=Misty
TTITLE12=Embraceable You
TTITLE13=I love Paris
TTITLE14=I Can't Give You Anything But
TTITLE15=Georgia on My mind
TTITLE16=But Not For Me
TTITLE17=Blue Skies
TTITLE18=Someone To Watch Over Me
EXTD=
EXTT0=
EXTT1=
EXTT2=
EXTT3=
EXTT4=
EXTT5=
EXTT6=
EXTT7=
EXTT8=
EXTT9=
EXTT10=
EXTT11=
EXTT12=
EXTT13=
EXTT14=
EXTT15=
EXTT16=
EXTT17=
EXTT18=
PLAYORDER=
